# xmcd
#
# Track frame offsets: 
#        183
#        14183
#        27150
#        43715
#        57098
#        70803
#        86298
#        101455
#        117118
#        127888
#        140483
#        158328
#        168013
#        185428
#        202610
#        217248
#        235983
#        248713
#        264685
#        275320
#        289143
#
# Disc length: 4000 seconds
#
# Revision: 6
# Processed by: cddbd v1.5.2PL0 Copyright (c) Steve Scherf et al.
# Submitted via: ExactAudioCopy v1.3
#
DISCID=1f0f9e15
DTITLE=Various Artist - Kings of Cajun Vol.2  (21 more stomps from th
DTITLE=e swamps)
DYEAR=1993
DGENRE=Cajun
TTITLE0=Rockin' Dopsie - My Baby She's Gone
TTITLE1=Don Montoucet and The Wandering Aces - Johnny Peu' Pas Danse
TTITLE2=Wayne Toups and The Crowley Aces - Bosco Blues
TTITLE3=Balfa Brothers Orchestra - Don't Bury Me
TTITLE4=Clifton Chenier - Nonc Helaire
TTITLE5=Austin Pitre and The Evangeline Playboys - Lake Hope Special
TTITLE6=Queen Ida - C'est Moi
TTITLE7=Austin Pitre and The Evangeline Playboys - Les Flames D'Enfer
TTITLE8=Boozoo Chavis - Uncle Bud
TTITLE9=Nathan Abshire - Cher Mom
TTITLE10=Rockin' Dopsie - Ma Negresse
TTITLE11=Revon Reed and Sady Courville - The Cajun Strip
TTITLE12=Clifton Chenier - Got To Have Your Love
TTITLE13=Queen Ida - 1-10 Express
TTITLE14=Wayne Toups and The Crowley Aces - Black Bayou
TTITLE15=Rockin' Dopsie - Josephine
TTITLE16=Wayne Toups and The Crowley Aces - Lafayette Two-Step
TTITLE17=Clifton Chenier - I'm Here
TTITLE18=Balfa Brothers Orchestra - Black Bayou Two-Step
TTITLE19=Don Montoucet and The Wandering Aces - The Country Gentlemen
TTITLE20=Boozoo Chavis - Deacon Jones
EXTD=Music Collection Int. (P) 1993 MCCD 116 ID3G:  48 YEAR: 1993
EXTT0=
EXTT1=
EXTT2=
EXTT3=
EXTT4=
EXTT5=
EXTT6=
EXTT7=
EXTT8=
EXTT9=
EXTT10=
EXTT11=
EXTT12=
EXTT13=
EXTT14=
EXTT15=
EXTT16=
EXTT17=
EXTT18=
EXTT19=
EXTT20=
PLAYORDER=
